<svg xmlns="http://www.w3.org/2000/svg" id="instagram_logo" viewBox="0 0 14 14" width="100%" height="100%"><path fill="#275a85" d="M12.2 0H1.7C.8 0 0 .8 0 1.8v10.5c0 1 .8 1.8 1.7 1.8h10.5c1 0 1.8-.8 1.8-1.8V1.8c0-1-.8-1.8-1.8-1.8zM7 4.7c1 0 1.8.6 2.1 1.4.2.3.2.6.2.9 0 1.3-1 2.3-2.3 2.3S4.7 8.3 4.7 7c0-.3.1-.6.2-.9C5.2 5.3 6 4.7 7 4.7zm5.2 4v2.7c0 .5-.4.9-.9.9H2.6c-.5 0-.9-.4-.9-.9V6.1H3c0 .3-.1.6-.1.9 0 2.3 1.8 4.1 4.1 4.1s4.1-1.8 4.1-4.1c0-.3 0-.6-.1-.9h1.3v2.6zm0-5.2c0 .5-.4.9-.9.9h-.9c-.4 0-.8-.4-.8-.9v-.9c0-.5.4-.9.9-.9h.9c.5 0 .9.4.9.9v.9z"/></svg>